<svg width="64" height="64" viewBox="0 0 64 64" fill="none" xmlns="http://www.w3.org/2000/svg">
  <!-- Main Structure - Abstract Building/Architecture -->
  <rect x="16" y="32" width="12" height="20" fill="none" stroke="#2C2C2C" stroke-width="2"/>
  <rect x="20" y="36" width="4" height="4" fill="#2C2C2C"/>
  <rect x="20" y="44" width="4" height="4" fill="#2C2C2C"/>

  <!-- Central Tower -->
  <rect x="28" y="24" width="8" height="28" fill="none" stroke="#2C2C2C" stroke-width="2"/>
  <rect x="30" y="28" width="4" height="3" fill="#2C2C2C"/>
  <rect x="30" y="34" width="4" height="3" fill="#2C2C2C"/>
  <rect x="30" y="40" width="4" height="3" fill="#2C2C2C"/>
  <rect x="30" y="46" width="4" height="3" fill="#2C2C2C"/>

  <!-- Right Structure -->
  <rect x="36" y="28" width="12" height="24" fill="none" stroke="#2C2C2C" stroke-width="2"/>
  <rect x="40" y="32" width="4" height="4" fill="#2C2C2C"/>
  <rect x="40" y="40" width="4" height="4" fill="#2C2C2C"/>

  <!-- Connecting Elements (showing flexibility) -->
  <path d="M28 40L36 36" stroke="#FF6B3E" stroke-width="2" stroke-linecap="round"/>
  <path d="M28 32L36 44" stroke="#FF6B3E" stroke-width="2" stroke-linecap="round"/>

  <!-- Top Element - Brain/Mind Symbol -->
  <path d="M24 16C24 12 28 8 32 8C36 8 40 12 40 16C40 18 38 20 36 20H28C26 20 24 18 24 16Z" fill="none" stroke="#2C2C2C" stroke-width="2"/>
  <circle cx="29" cy="15" r="1" fill="#2C2C2C"/>
  <circle cx="35" cy="15" r="1" fill="#2C2C2C"/>

  <!-- Base Foundation -->
  <rect x="12" y="52" width="40" height="4" fill="#2C2C2C"/>
</svg>
