<svg width="17" height="16" viewBox="0 0 17 16" fill="none" xmlns="http://www.w3.org/2000/svg">
<g clip-path="url(#clip0_33_154998)">
<path d="M16.5493 8C16.5493 3.58175 12.9676 0 8.54932 0C4.13107 0 0.549316 3.58175 0.549316 8C0.549316 11.993 3.47482 15.3027 7.29932 15.9028V10.3125H5.26807V8H7.29932V6.2375C7.29932 4.2325 8.49369 3.125 10.3211 3.125C11.1963 3.125 12.1118 3.28125 12.1118 3.28125V5.25H11.1031C10.1093 5.25 9.79932 5.86669 9.79932 6.49937V8H12.0181L11.6634 10.3125H9.79932V15.9028C13.6238 15.3027 16.5493 11.9931 16.5493 8Z" fill="#1877F2"/>
<path d="M11.6634 10.3125L12.0181 8H9.79932V6.49937C9.79932 5.86662 10.1093 5.25 11.1031 5.25H12.1118V3.28125C12.1118 3.28125 11.1963 3.125 10.321 3.125C8.49369 3.125 7.29932 4.2325 7.29932 6.2375V8H5.26807V10.3125H7.29932V15.9028C7.71283 15.9676 8.13076 16.0001 8.54932 16C8.96787 16.0001 9.3858 15.9676 9.79932 15.9028V10.3125H11.6634Z" fill="white"/>
</g>
<defs>
<clipPath id="clip0_33_154998">
<rect width="16" height="16" fill="white" transform="translate(0.549316)"/>
</clipPath>
</defs>
</svg>
