<svg width="17" height="16" viewBox="0 0 17 16" fill="none" xmlns="http://www.w3.org/2000/svg">
<g clip-path="url(#clip0_33_154990)">
<path d="M6.12318 0.526126C4.52453 1.08071 3.14586 2.13333 2.18967 3.52938C1.23348 4.92542 0.750171 6.59131 0.810734 8.28233C0.871298 9.97336 1.47254 11.6004 2.52615 12.9245C3.57976 14.2485 5.03021 15.1998 6.66443 15.6386C7.98934 15.9805 9.37744 15.9955 10.7094 15.6824C11.9161 15.4113 13.0317 14.8316 13.9469 13.9999C14.8995 13.1078 15.591 11.973 15.9469 10.7174C16.3338 9.35196 16.4027 7.91604 16.1482 6.51988H8.70818V9.60613H13.0169C12.9308 10.0984 12.7463 10.5682 12.4744 10.9874C12.2025 11.4067 11.8488 11.7668 11.4344 12.0461C10.9083 12.3942 10.3152 12.6283 9.69318 12.7336C9.06936 12.8496 8.4295 12.8496 7.80568 12.7336C7.17342 12.6029 6.5753 12.3419 6.04943 11.9674C5.20462 11.3694 4.57028 10.5198 4.23693 9.53988C3.89795 8.54162 3.89795 7.45938 4.23693 6.46113C4.47421 5.7614 4.86647 5.12429 5.38443 4.59738C5.97717 3.98331 6.7276 3.54437 7.55338 3.32872C8.37916 3.11307 9.24838 3.12904 10.0657 3.37488C10.7041 3.57086 11.288 3.9133 11.7707 4.37488C12.2565 3.89154 12.7415 3.40696 13.2257 2.92113C13.4757 2.65988 13.7482 2.41113 13.9944 2.14363C13.2576 1.45797 12.3928 0.924447 11.4494 0.573626C9.73156 -0.0501371 7.8519 -0.0669002 6.12318 0.526126Z" fill="white"/>
<path d="M6.12328 0.526245C7.85186 -0.067184 9.73152 -0.0508623 11.4495 0.572495C12.393 0.925699 13.2575 1.46179 13.9933 2.14999C13.7433 2.41749 13.4795 2.66749 13.2245 2.92749C12.7395 3.41166 12.2549 3.89416 11.7708 4.37499C11.2881 3.91342 10.7042 3.57098 10.0658 3.37499C9.24875 3.1283 8.37955 3.1114 7.55356 3.32617C6.72756 3.54094 5.97667 3.97907 5.38328 4.59249C4.86532 5.11941 4.47306 5.75652 4.23578 6.45624L1.64453 4.44999C2.57204 2.6107 4.17797 1.20377 6.12328 0.526245Z" fill="#E33629"/>
<path d="M0.956754 6.4377C1.09603 5.74744 1.32726 5.07898 1.64425 4.4502L4.2355 6.46145C3.89652 7.4597 3.89652 8.54194 4.2355 9.5402C3.37217 10.2069 2.50842 10.8769 1.64425 11.5502C0.850693 9.97059 0.60867 8.17082 0.956754 6.4377Z" fill="#F8BD00"/>
<path d="M8.70808 6.51855H16.1481C16.4026 7.91472 16.3337 9.35064 15.9468 10.7161C15.5909 11.9717 14.8994 13.1065 13.9468 13.9986C13.1106 13.3461 12.2706 12.6986 11.4343 12.0461C11.8489 11.7664 12.2028 11.4059 12.4747 10.9862C12.7466 10.5665 12.931 10.0962 13.0168 9.60355H8.70808C8.70683 8.57605 8.70808 7.5473 8.70808 6.51855Z" fill="#587DBD"/>
<path d="M1.64307 11.55C2.50723 10.8834 3.37098 10.2134 4.23432 9.54004C4.56833 10.5203 5.20357 11.3699 6.04932 11.9675C6.57683 12.3404 7.17623 12.5992 7.80932 12.7275C8.43314 12.8435 9.073 12.8435 9.69682 12.7275C10.3188 12.6223 10.9119 12.3881 11.4381 12.04C12.2743 12.6925 13.1143 13.34 13.9506 13.9925C13.0354 14.8247 11.9198 15.4049 10.7131 15.6763C9.38108 15.9894 7.99297 15.9744 6.66807 15.6325C5.62019 15.3528 4.64141 14.8595 3.79307 14.1838C2.89514 13.4709 2.16176 12.5725 1.64307 11.55Z" fill="#319F43"/>
</g>
<defs>
<clipPath id="clip0_33_154990">
<rect width="16" height="16" fill="white" transform="translate(0.549316)"/>
</clipPath>
</defs>
</svg>

