<svg width="192" height="192" viewBox="0 0 192 192" fill="none" xmlns="http://www.w3.org/2000/svg">
  <rect width="192" height="192" rx="24" fill="#F97316"/>
  <path d="M96 48C108.15 48 118 57.85 118 70V82.5C118 87.5 120.5 92.2 125 95L130 98.5C131.5 99.5 132.5 101.2 132.5 103V108C132.5 110.5 130.5 112.5 128 112.5H64C61.5 112.5 59.5 110.5 59.5 108V103C59.5 101.2 60.5 99.5 62 98.5L67 95C71.5 92.2 74 87.5 74 82.5V70C74 57.85 83.85 48 96 48Z" fill="white"/>
  <path d="M96 120C102.6 120 108 114.6 108 108H84C84 114.6 89.4 120 96 120Z" fill="white"/>
</svg>
